<svg width="25.000000" height="21.250488" viewBox="0 0 25 21.2505" fill="none" xmlns="http://www.w3.org/2000/svg" xmlns:xlink="http://www.w3.org/1999/xlink">
	<desc>
			Created with Pixso.
	</desc>
	<defs/>
	<path d="M15 11.8752L13.75 11.8752L13.75 10.6252C13.75 10.2937 13.6183 9.97583 13.3839 9.74133C13.1495 9.50696 12.8315 9.37524 12.5 9.37524C12.1685 9.37524 11.8505 9.50696 11.6161 9.74133C11.3817 9.97583 11.25 10.2937 11.25 10.6252L11.25 11.8752L10 11.8752C9.66849 11.8752 9.35052 12.007 9.11612 12.2413C8.88168 12.4758 8.75 12.7937 8.75 13.1252C8.75 13.4568 8.88168 13.7747 9.11612 14.0092C9.35052 14.2435 9.66849 14.3752 10 14.3752L11.25 14.3752L11.25 15.6252C11.25 15.9568 11.3817 16.2747 11.6161 16.5092C11.8505 16.7435 12.1685 16.8752 12.5 16.8752C12.8315 16.8752 13.1495 16.7435 13.3839 16.5092C13.6183 16.2747 13.75 15.9568 13.75 15.6252L13.75 14.3752L15 14.3752C15.3315 14.3752 15.6495 14.2435 15.8839 14.0092C16.1183 13.7747 16.25 13.4568 16.25 13.1252C16.25 12.7937 16.1183 12.4758 15.8839 12.2413C15.6495 12.007 15.3315 11.8752 15 11.8752Z" fill="#FFFFFF" fill-opacity="0.550000" fill-rule="nonzero"/>
	<path d="M21.875 4.43774L13.125 4.43774L9.83749 0.462769C9.72119 0.319336 9.57455 0.203491 9.40811 0.123535C9.2417 0.0435791 9.05963 0.00146484 8.875 0.000244141L3.125 0.000244141C2.30826 -0.00976562 1.52083 0.304199 0.93512 0.873535C0.349411 1.44287 0.0131683 2.22107 0 3.03772L0 18.2128C0.0131683 19.0294 0.349411 19.8076 0.93512 20.377C1.52083 20.9463 2.30826 21.2603 3.125 21.2502L21.875 21.2502C22.6917 21.2603 23.4792 20.9463 24.0649 20.377C24.6506 19.8076 24.9868 19.0294 25 18.2128L25 7.47522C24.9868 6.65857 24.6506 5.88037 24.0649 5.31104C23.4792 4.7417 22.6917 4.42773 21.875 4.43774ZM22.5 18.1877C22.4953 18.2644 22.4753 18.3395 22.4411 18.4082C22.4069 18.4771 22.3593 18.5383 22.301 18.5885C22.2427 18.6385 22.175 18.6765 22.1019 18.7C22.0287 18.7235 21.9515 18.7321 21.875 18.7252L3.125 18.7252C3.04846 18.7321 2.97131 18.7235 2.89816 18.7C2.82498 18.6765 2.75726 18.6385 2.69901 18.5885C2.64075 18.5383 2.59311 18.4771 2.55893 18.4082C2.52475 18.3395 2.5047 18.2644 2.5 18.1877L2.5 3.03772C2.5047 2.96106 2.52475 2.88611 2.55893 2.81726C2.59311 2.74841 2.64075 2.68713 2.69901 2.63696C2.75726 2.58691 2.82498 2.54895 2.89816 2.52551C2.97131 2.50195 3.04846 2.49341 3.125 2.50024L8.28751 2.50024L11.5375 6.47522C11.6538 6.61865 11.8004 6.7345 11.9669 6.81445C12.1333 6.89441 12.3154 6.93652 12.5 6.93774L21.875 6.93774C21.9515 6.93091 22.0287 6.93945 22.1019 6.96301C22.175 6.98645 22.2427 7.02441 22.301 7.07446C22.3593 7.12463 22.4069 7.18591 22.4411 7.25476C22.4753 7.32361 22.4953 7.39856 22.5 7.47522L22.5 18.1877Z" fill="#FFFFFF" fill-opacity="0.550000" fill-rule="nonzero"/>
</svg>
